<?xml version="1.0" standalone="no"?><!DOCTYPE svg PUBLIC "-//W3C//DTD SVG 1.1//EN" "http://www.w3.org/Graphics/SVG/1.1/DTD/svg11.dtd"><svg t="1634727601828" class="icon" viewBox="0 0 1024 1024" version="1.1" xmlns="http://www.w3.org/2000/svg" p-id="7634" xmlns:xlink="http://www.w3.org/1999/xlink" width="64" height="64"><defs><style type="text/css"></style></defs><path d="M0 0m227.577854 0l568.844292 0q227.577854 0 227.577854 227.577854l0 568.844292q0 227.577854-227.577854 227.577854l-568.844292 0q-227.577854 0-227.577854-227.577854l0-568.844292q0-227.577854 227.577854-227.577854Z" fill="#5959EF" p-id="7635"></path><path d="M718.756688 802.743753v-37.427927h17.158648a37.327585 37.327585 0 0 0 37.327584-37.327585v-411.406173a37.327585 37.327585 0 0 0-37.327584-37.327585H287.58295a37.327585 37.327585 0 0 0-37.327585 37.327585v411.406173a37.327585 37.327585 0 0 0 37.327585 37.327585H651.22587V802.743753H287.58295a74.755512 74.755512 0 0 1-74.755512-74.755512v-411.406173a74.755512 74.755512 0 0 1 74.755512-74.755512h448.332386a74.755512 74.755512 0 0 1 74.755512 74.755512v411.406173A74.755512 74.755512 0 0 1 735.915336 802.743753z m0 0v-37.427927h17.158648a37.327585 37.327585 0 0 0 37.327584-37.327585v-411.406173a37.327585 37.327585 0 0 0-37.327584-37.327585H287.58295a37.327585 37.327585 0 0 0-37.327585 37.327585v411.406173a37.327585 37.327585 0 0 0 37.327585 37.327585H651.22587V802.743753H287.58295a74.755512 74.755512 0 0 1-74.755512-74.755512v-411.406173a74.755512 74.755512 0 0 1 74.755512-74.755512h448.332386a74.755512 74.755512 0 0 1 74.755512 74.755512v411.406173A74.755512 74.755512 0 0 1 735.915336 802.743753z m0 0" fill="#FFFFFF" p-id="7636"></path><path d="M378.895051 383.009113a18.764135 18.764135 0 1 1 0 37.327585h-66.427045a18.764135 18.764135 0 1 1 0-37.327585z m166.067614 0a18.764135 18.764135 0 1 1 0 37.327585h-66.527388a18.663792 18.663792 0 1 1 0-37.327585z m166.067614 0a18.764135 18.764135 0 1 1 0 37.327585h-66.427045a18.663792 18.663792 0 1 1 0-37.327585z m-332.135228 119.508476a18.663792 18.663792 0 1 1 0 37.327585h-66.427045a18.663792 18.663792 0 1 1 0-37.327585z m166.067614 0a18.764135 18.764135 0 1 1 0 37.327585h-66.527388a18.663792 18.663792 0 1 1 0-37.327585zM378.895051 622.126409a18.663792 18.663792 0 1 1 0 37.327584h-66.427045a18.663792 18.663792 0 1 1 0-37.327584z m166.067614 0a18.663792 18.663792 0 1 1 0 37.327584h-66.527388a18.663792 18.663792 0 1 1 0-37.327584z m135.563352-103.353259a31.608035 31.608035 0 0 0-31.608036 31.608036v195.969818l31.608036 47.96394L712.435081 746.351004V550.381186a31.608035 31.608035 0 0 0-31.608035-31.608036z m0-37.327584a69.035963 69.035963 0 0 1 69.035962 69.035963v195.869475a37.327585 37.327585 0 0 1-6.120921 20.068594l-31.608035 47.963939a37.327585 37.327585 0 0 1-62.413327 0l-31.608035-47.963939a37.327585 37.327585 0 0 1-6.120921-20.068594V550.381186A69.035963 69.035963 0 0 1 680.526017 481.646252z m0 0" fill="#FFFFFF" p-id="7637"></path></svg>