<?xml version="1.0" standalone="no"?><!DOCTYPE svg PUBLIC "-//W3C//DTD SVG 1.1//EN" "http://www.w3.org/Graphics/SVG/1.1/DTD/svg11.dtd"><svg t="1634641571750" class="icon" viewBox="0 0 1024 1024" version="1.1" xmlns="http://www.w3.org/2000/svg" p-id="1197" xmlns:xlink="http://www.w3.org/1999/xlink" width="200" height="200"><defs><style type="text/css"></style></defs><path d="M1000.313446 1024m-53.4528 0l-192.512 0q-53.4528 0-53.4528-53.4528l0-405.0944q0-53.4528 53.4528-53.4528l192.512 0q53.4528 0 53.4528 53.4528l0 405.0944q0 53.4528-53.4528 53.4528Z" fill="#00E3B8" p-id="1198"></path><path d="M893.100646 1024m-53.4528 0l-766.464 0q-53.4528 0-53.4528-53.4528l0-917.0944q0-53.4528 53.4528-53.4528l766.464 0q53.4528 0 53.4528 53.4528l0 917.0944q0 53.4528-53.4528 53.4528Z" fill="#3AC600" opacity=".7" p-id="1199"></path><path d="M315.462246 620.544a30.72 30.72 0 0 1-21.1968-8.4992l-71.68-68.608a30.72 30.72 0 0 1 41.6768-44.544l40.96 39.1168 87.3472-188.2112a30.72 30.72 0 0 1 54.272-2.7648l92.16 155.5456L673.862246 256a30.72 30.72 0 1 1 53.8624 29.3888l-160.768 293.9904a30.72 30.72 0 0 1-53.4528 0.9216l-89.8048-151.7568-80.7936 174.08a30.72 30.72 0 0 1-22.2208 17.2032 35.1232 35.1232 0 0 1-5.2224 0.7168z" fill="#FFFFFF" p-id="1200"></path></svg>