<?xml version="1.0" standalone="no"?><!DOCTYPE svg PUBLIC "-//W3C//DTD SVG 1.1//EN" "http://www.w3.org/Graphics/SVG/1.1/DTD/svg11.dtd"><svg t="1634801329767" class="icon" viewBox="0 0 1024 1024" version="1.1" xmlns="http://www.w3.org/2000/svg" p-id="7350" xmlns:xlink="http://www.w3.org/1999/xlink" width="256" height="256"><defs><style type="text/css"></style></defs><path d="M510.848 1.1264C229.8112 1.1264 1.1264 229.8112 1.1264 510.848c0 281.088 228.6336 509.7472 509.7216 509.7472 281.088 0 509.7472-228.6592 509.7472-509.7472C1020.5952 229.8112 791.936 1.1264 510.848 1.1264zM510.72 965.12c-250.5728 0-454.4-203.8784-454.4-454.4 0-250.5728 203.8272-454.4 454.4-454.4 250.5216 0 454.4 203.8272 454.4 454.4 0 250.5216-203.8784 454.4-454.4 454.4z" fill="#FFCD55" p-id="7351"></path><path d="M512 204.8c-84.7104 0-153.6 65.664-153.6 146.3552 0 18.6112 15.7184 33.7408 35.0976 33.7408s35.0976-15.104 35.0976-33.7408c0-44.2368 36.608-78.8736 83.4048-78.8736 46.0288 0 83.4048 36.224 83.4048 80.7936 0 16.8448-25.088 40.8832-47.1808 62.1312-33.408 32.1024-71.3216 68.5056-71.3216 117.2736v48.1792c0 18.6624 15.7184 33.7408 35.0976 33.7408s35.0976-15.104 35.0976-33.7408V532.48c0-20.8128 25.8048-45.5936 50.7648-69.5552C629.6064 432.4352 665.6 397.824 665.6 353.0752 665.6 271.2832 596.7104 204.8 512 204.8z" fill="#333333" p-id="7352"></path><path d="M435.2 793.6a76.8 76.8 0 1 0 153.6 0 76.8 76.8 0 0 0-153.6 0z" fill="#FFCD55" p-id="7353"></path></svg>