<?xml version="1.0" standalone="no"?><!DOCTYPE svg PUBLIC "-//W3C//DTD SVG 1.1//EN" "http://www.w3.org/Graphics/SVG/1.1/DTD/svg11.dtd"><svg t="1634641583452" class="icon" viewBox="0 0 1024 1024" version="1.1" xmlns="http://www.w3.org/2000/svg" p-id="1616" xmlns:xlink="http://www.w3.org/1999/xlink" width="200" height="200"><defs><style type="text/css"></style></defs><path d="M512 805.116517m-218.883483 0a218.883483 218.883483 0 1 0 437.766966 0 218.883483 218.883483 0 1 0-437.766966 0Z" fill="#FFAEFF" p-id="1617"></path><path d="M952.224031 718.197865l-77.397527-135.650428a226.152299 226.152299 0 0 1-29.791906-112.61545V341.243241C845.034598 160.649011 704.572419 6.877733 524.182944 0.223183a333.034598 333.034598 0 0 0-345.217542 333.034599v136.981338a226.152299 226.152299 0 0 1-29.791906 112.61545L71.775969 718.197865a57.945768 57.945768 0 0 0 50.267442 86.611519h280.207714c34.398901 0.614266 71.664377 0 109.748875 0s75.349974 0.614266 109.748875 0H902.058967a57.945768 57.945768 0 0 0 50.165064-86.611519z" fill="#6A1EE2" opacity=".7" p-id="1618"></path></svg>