<?xml version="1.0" standalone="no"?><!DOCTYPE svg PUBLIC "-//W3C//DTD SVG 1.1//EN" "http://www.w3.org/Graphics/SVG/1.1/DTD/svg11.dtd"><svg t="1634641568218" class="icon" viewBox="0 0 1024 1024" version="1.1" xmlns="http://www.w3.org/2000/svg" p-id="1055" xmlns:xlink="http://www.w3.org/1999/xlink" width="200" height="200"><defs><style type="text/css"></style></defs><path d="M891.135516 237.821858c52.937497 0 69.934836-38.704785 69.934837-86.522601V98.771334a25.393615 25.393615 0 0 0-26.622339-23.960105h-43.312498z" fill="#FF5910" p-id="1056"></path><path d="M193.630241 918.432187m52.835103 0l531.013265 0q52.835103 0 52.835103 52.835104l0-0.102394q0 52.835103-52.835103 52.835103l-531.013265 0q-52.835103 0-52.835103-52.835103l0 0.102394q0-52.835103 52.835103-52.835104Z" fill="#FF5910" p-id="1057"></path><path d="M828.982595 0.063894H194.961358a59.593081 59.593081 0 0 0-62.255316 56.623666v348.650245c0 172.226053 138.743342 314.860353 320.082427 340.663542v242.980038h118.264621V746.001347C752.699355 720.198157 891.23791 577.563858 891.23791 405.337805v-348.138277A59.593081 59.593081 0 0 0 828.982595 0.063894z" fill="#FF002B" opacity=".7" p-id="1058"></path><path d="M567.469313 290.042599L511.562402 177.20484l-55.190156 113.247333-123.998663 18.43085 90.003984 87.751325-20.785903 124.203449 110.89228-58.978719 111.199461 58.364358-21.605051-124.20345 89.594409-88.160899-124.20345-17.816488z" fill="#FFFFFF" p-id="1059"></path><path d="M132.706042 237.821858C79.666152 237.821858 62.8736 199.117073 62.8736 151.299257V98.771334A25.393615 25.393615 0 0 1 89.393545 74.811229h43.312497z" fill="#FF5910" p-id="1060"></path></svg>