<?xml version="1.0" standalone="no"?><!DOCTYPE svg PUBLIC "-//W3C//DTD SVG 1.1//EN" "http://www.w3.org/Graphics/SVG/1.1/DTD/svg11.dtd"><svg t="1634641575301" class="icon" viewBox="0 0 1024 1024" version="1.1" xmlns="http://www.w3.org/2000/svg" p-id="1337" xmlns:xlink="http://www.w3.org/1999/xlink" width="200" height="200"><defs><style type="text/css"></style></defs><path d="M104.038333 0m60.927952 0l694.169044 0q60.927951 0 60.927952 60.927951l0 735.231412q0 60.927951-60.927952 60.927951l-694.169044 0q-60.927951 0-60.927952-60.927951l0-735.231412q0-60.927951 60.927952-60.927951Z" fill="#FFC646" p-id="1338"></path><path d="M947.506459 1023.999181H76.492755a55.705555 55.705555 0 0 1-56.012755-55.705556V484.249213a55.705555 55.705555 0 0 1 55.705556-55.705556l404.070076 194.559845 466.943627-194.559845a55.705555 55.705555 0 0 1 56.319955 55.705556v484.044412A55.705555 55.705555 0 0 1 947.506459 1023.999181z" fill="#FF5B00" opacity=".7" p-id="1339"></path><path d="M762.265007 203.161437H261.734207a30.719975 30.719975 0 0 1 0-61.43995h500.5308a30.719975 30.719975 0 0 1 0 61.43995zM762.265007 375.5005H261.734207a30.719975 30.719975 0 0 1 0-61.439951h500.5308a30.719975 30.719975 0 0 1 0 61.439951z" fill="#FFFFFF" p-id="1340"></path></svg>