<?xml version="1.0" standalone="no"?><!DOCTYPE svg PUBLIC "-//W3C//DTD SVG 1.1//EN" "http://www.w3.org/Graphics/SVG/1.1/DTD/svg11.dtd"><svg t="1634735032860" class="icon" viewBox="0 0 1024 1024" version="1.1" xmlns="http://www.w3.org/2000/svg" p-id="16309" xmlns:xlink="http://www.w3.org/1999/xlink" width="64" height="64"><defs><style type="text/css"></style></defs><path d="M512 1024C230.4 1024 0.512 793.6 1.024 510.976 1.024 226.816 230.4 0 516.608 0c276.992 0 506.368 231.936 506.88 511.488 0 283.136-229.376 512.512-511.488 512.512z m-2.048-78.848c245.248-2.56 436.224-195.072 433.664-436.736-2.56-239.616-195.072-430.592-432.64-429.056-241.664 1.536-433.664 196.608-430.592 436.736 3.072 238.592 195.584 431.104 429.568 429.056z" fill="#d4237a" p-id="16310"></path><path d="M323.584 309.76H471.04v303.104H378.368v28.672H323.584V309.76z m94.208 50.688h-39.424v75.776h39.424V360.448z m0 202.24V486.912h-39.424v75.776h39.424z m80.896 140.8c-13.824-14.336-29.184-28.672-46.08-43.52 21.504-25.088 35.328-50.176 41.984-74.24 6.144-24.064 9.216-62.976 9.216-116.224V302.592h197.12v312.32c0 13.824-1.536 25.6-4.096 35.328-3.072 10.24-7.68 18.944-14.848 26.624s-22.016 12.288-44.032 13.824c-22.528 1.536-43.008 2.048-61.952 2.048-5.12-24.064-9.728-42.496-13.824-56.32l52.736 1.024c21.504 0 31.744-13.312 31.744-39.936v-25.6h-93.184c-9.216 53.248-27.136 97.28-54.784 131.584z m59.392-185.856h88.064V463.872h-87.552c0 17.92 0 35.84-0.512 53.76z m88.064-160.256h-87.552v53.248h87.552V357.376z" fill="#d4237a" p-id="16311"></path></svg>