<?xml version="1.0" standalone="no"?><!DOCTYPE svg PUBLIC "-//W3C//DTD SVG 1.1//EN" "http://www.w3.org/Graphics/SVG/1.1/DTD/svg11.dtd"><svg t="1634727305343" class="icon" viewBox="0 0 1033 1024" version="1.1" xmlns="http://www.w3.org/2000/svg" p-id="5220" xmlns:xlink="http://www.w3.org/1999/xlink" width="64.5625" height="64"><defs><style type="text/css"></style></defs><path d="M142.101 495.123c0-0.398-0.114-0.776-0.114-1.174h0.085c7.632-209.091 179.066-376.407 390.022-376.407 85.405 0 163.898 28.017 228.103 74.564l-60.333 58.704 0.341 0.379c-6.372 7.48-10.377 17.062-10.377 27.704 0 23.747 19.278 42.987 43.015 42.987H933.6c23.747 0 43.015-19.24 43.015-42.987V78.117c0-23.747-19.268-42.987-43.015-42.987-18.132 0-33.556 11.248-39.89 27.07l-53.108 51.65C755.549 46.937 648.802 6.422 532.113 6.422c-262.407 0-476.715 201.724-498.88 458.393-1.723 4.649-2.983 9.554-2.983 14.828 0 1.837 0.606 3.475 1.032 5.198-0.606 3.352-1.032 6.77-1.032 10.292 0 30.914 25.035 55.949 55.949 55.949 30.867-0.01 55.902-25.044 55.902-55.959z m891.866 7.168c0-2.093-0.398-4.071-0.606-6.107-0.028-0.71-0.085-1.458-0.114-2.206h-0.114c-4.043-26.9-27.042-47.607-55.097-47.607-28.074 0-51.073 20.736-55.116 47.607h-0.805c0.057 1.78 0.142 3.56 0.284 5.368-0.057 1.004-0.312 1.95-0.312 2.983 0 2.405 0.435 4.668 0.691 6.997-0.578 215.34-175.194 389.738-390.685 389.738-85.575 0-164.125-28.169-228.34-74.942l55.958-55.513c8.749-7.632 14.648-18.274 14.648-30.886 0-23.747-19.268-43.015-43.015-43.015h-35.847l-1.089-1.089-1.089 1.089H130.597c-23.747 0-43.015 19.268-43.015 43.015v200.749c0 23.747 19.268 43.015 43.015 43.015 3.124 0 5.88-1.146 8.834-1.771l0.114 1.771 2.206-2.263c11.125-3.039 20.101-10.207 25.584-19.874l57.151-56.668c84.856 66.79 191.12 107.485 307.6 107.485 277.14 0 501.834-224.666 501.872-501.815v-0.057c0-1.345-0.142-2.67-0.199-3.986 0.038-0.702 0.208-1.327 0.208-2.018z" fill="#13227a" p-id="5221"></path></svg>