<?xml version="1.0" standalone="no"?><!DOCTYPE svg PUBLIC "-//W3C//DTD SVG 1.1//EN" "http://www.w3.org/Graphics/SVG/1.1/DTD/svg11.dtd"><svg t="1634882714963" class="icon" viewBox="0 0 1024 1024" version="1.1" xmlns="http://www.w3.org/2000/svg" p-id="3212" xmlns:xlink="http://www.w3.org/1999/xlink" width="340" height="340"><defs><style type="text/css"></style></defs><path d="M512.006866 186.177629h372.355258v372.355259H512.006866z" fill="#12CB31" p-id="3213"></path><path d="M469.581638 103.468217a10.705214 10.705214 0 0 0-12.334267-10.263041C241.351137 123.086685 82.169264 312.964595 93.712277 532.747286c11.543013 218.828531 197.394831 395.860184 418.015322 398.117588 203.864504 2.047954 378.871475-140.447749 418.94621-336.446248 1.466149-7.144567-4.677713-14.498583-12.939345-14.498583H588.293149c-65.511253 0-118.688239-52.920991-118.688238-118.362428V103.468217z m93.088815 0v358.089398c0 13.916778 11.40338 25.273613 25.599424 25.273613h329.464587c66.651591 0 117.524628 60.856813 104.143111 126.228433C972.912859 852.577181 759.367118 1026.467086 510.773439 1023.976961 241.141687 1021.184296 14.912596 805.660418 0.739824 537.657721-13.363132 269.259396 180.983041 37.468248 444.470931 1.000705c62.346234-8.633988 118.222795 39.562746 118.222794 102.467512z" fill="#2A2A2A" p-id="3214"></path></svg>