<?xml version="1.0" standalone="no"?><!DOCTYPE svg PUBLIC "-//W3C//DTD SVG 1.1//EN" "http://www.w3.org/Graphics/SVG/1.1/DTD/svg11.dtd"><svg t="1634641588905" class="icon" viewBox="0 0 1038 1024" version="1.1" xmlns="http://www.w3.org/2000/svg" p-id="1755" xmlns:xlink="http://www.w3.org/1999/xlink" width="202.734375" height="200"><defs><style type="text/css"></style></defs><path d="M76.9024 0m65.024 0l5.9392 0q65.024 0 65.024 65.024l0 151.3472q0 65.024-65.024 65.024l-5.9392 0q-65.024 0-65.024-65.024l0-151.3472q0-65.024 65.024-65.024Z" fill="#FFC646" p-id="1756"></path><path d="M326.4512 0m65.024 0l5.9392 0q65.024 0 65.024 65.024l0 151.3472q0 65.024-65.024 65.024l-5.9392 0q-65.024 0-65.024-65.024l0-151.3472q0-65.024 65.024-65.024Z" fill="#FFC646" p-id="1757"></path><path d="M576 0m65.024 0l5.9392 0q65.024 0 65.024 65.024l0 151.3472q0 65.024-65.024 65.024l-5.9392 0q-65.024 0-65.024-65.024l0-151.3472q0-65.024 65.024-65.024Z" fill="#FFC646" p-id="1758"></path><path d="M825.5488 0m65.024 0l5.9392 0q65.024 0 65.024 65.024l0 151.3472q0 65.024-65.024 65.024l-5.9392 0q-65.024 0-65.024-65.024l0-151.3472q0-65.024 65.024-65.024Z" fill="#FFC646" p-id="1759"></path><path d="M0 140.6976m52.8384 0l932.7616 0q52.8384 0 52.8384 52.8384l0 777.6256q0 52.8384-52.8384 52.8384l-932.7616 0q-52.8384 0-52.8384-52.8384l0-777.6256q0-52.8384 52.8384-52.8384Z" fill="#FF1F1F" opacity=".7" p-id="1760"></path><path d="M211.456 466.8416m40.96 0l533.6064 0q40.96 0 40.96 40.96l0 14.5408q0 40.96-40.96 40.96l-533.6064 0q-40.96 0-40.96-40.96l0-14.5408q0-40.96 40.96-40.96Z" fill="#FFFFFF" p-id="1761"></path><path d="M211.456 669.9008m40.96 0l533.6064 0q40.96 0 40.96 40.96l0 14.5408q0 40.96-40.96 40.96l-533.6064 0q-40.96 0-40.96-40.96l0-14.5408q0-40.96 40.96-40.96Z" fill="#FFFFFF" p-id="1762"></path></svg>