<?xml version="1.0" standalone="no"?><!DOCTYPE svg PUBLIC "-//W3C//DTD SVG 1.1//EN" "http://www.w3.org/Graphics/SVG/1.1/DTD/svg11.dtd"><svg t="1634801465396" class="icon" viewBox="0 0 1024 1024" version="1.1" xmlns="http://www.w3.org/2000/svg" p-id="11229" xmlns:xlink="http://www.w3.org/1999/xlink" width="256" height="256"><defs><style type="text/css"></style></defs><path d="M1024 307.712H0V170.496c0-41.472 33.792-75.776 75.776-75.776h872.96c41.472 0 75.776 33.792 75.776 75.776v137.216zM0 382.464v450.56c0 41.472 33.792 75.776 75.776 75.776h872.96c41.472 0 75.776-33.792 75.776-75.776v-450.56H0zM885.76 803.84h-256c-19.456 0-35.84-16.384-35.84-35.84 0-19.968 16.384-35.84 35.84-35.84h256c19.456 0 35.84 15.872 35.84 35.84 0 19.456-16.384 35.84-35.84 35.84z" fill="#F29600" p-id="11230"></path></svg>