<?xml version="1.0" standalone="no"?><!DOCTYPE svg PUBLIC "-//W3C//DTD SVG 1.1//EN" "http://www.w3.org/Graphics/SVG/1.1/DTD/svg11.dtd"><svg t="1634801439678" class="icon" viewBox="0 0 1024 1024" version="1.1" xmlns="http://www.w3.org/2000/svg" p-id="10383" xmlns:xlink="http://www.w3.org/1999/xlink" width="256" height="256"><defs><style type="text/css"></style></defs><path d="M1017.4 0H558.5c-66.8 138.8-176.6 413.7-134.8 554.5 8.9 30 23.7 47.3 46.6 54.2 7.9 2.4 17.1 3.6 27.4 3.6 69.4 0 162.1-53.1 192-73.7 2.2-1.5 14.1-9.2 28.9-9.2 11.9 0 22.8 5 30.5 14.2 9.8 11.6 10.7 23.2 9.6 30.9-2.6 19.5-19.3 31.9-22.6 34.2-13.5 9.2-133.9 89.4-242 89.4-18.7 0-36.1-2.5-52-7.3-49.3-14.9-84.3-52.5-100.9-108.8-49.7-166.9 60.7-444.2 124-582H51.9L8.5 496.1C-2.8 625 36.8 746.2 120 837.4c83.2 91.2 200 141.4 329 141.4 80.5 0 159.8-19.6 232.1-56.5L897.2 1024l-35.8-249.8c64.3-80.8 103.7-177.1 112.5-278.1L1017.4 0zM808.5 251.8c-3.3 37.5-36.4 67.9-73.8 67.9-37.5 0-65.2-30.4-62-67.9 3.3-37.5 36.4-67.9 73.9-67.9 37.4 0 65.1 30.4 61.9 67.9z" fill="#ea5947" p-id="10384"></path></svg>