<?xml version="1.0" standalone="no"?><!DOCTYPE svg PUBLIC "-//W3C//DTD SVG 1.1//EN" "http://www.w3.org/Graphics/SVG/1.1/DTD/svg11.dtd"><svg t="1634801407061" class="icon" viewBox="0 0 1024 1024" version="1.1" xmlns="http://www.w3.org/2000/svg" p-id="9738" width="256" height="256" xmlns:xlink="http://www.w3.org/1999/xlink"><defs><style type="text/css"></style></defs><path d="M864 992H160a64 64 0 0 1-64-64V96a64 64 0 0 1 64-64h704a64 64 0 0 1 64 64v832a64 64 0 0 1-64 64z m32-880a48 48 0 0 0-48-48H176a48 48 0 0 0-48 48v800a48 48 0 0 0 48 48h672a48 48 0 0 0 48-48V112zM651.584 859.12a16.24 16.24 0 0 1-11.616 4.8 15.824 15.824 0 0 1-11.344-4.64l-112.352-112.4a15.888 15.888 0 0 1 22.4-22.4l100.704 100.704 196.672-196.672a16.304 16.304 0 1 1 23.056 23.056zM816 448H208a16 16 0 0 1 0-32h608a16 16 0 0 1 0 32z m0-192H608a16 16 0 0 1 0-32h208a16 16 0 0 1 0 32z m-304-64h-32v32a16 16 0 0 1-32 0v-32h-32a16 16 0 0 1 0-32h32V128a16 16 0 0 1 32 0v32h32a16 16 0 0 1 0 32z m-124.24 191.552a17.072 17.072 0 0 1-20.704-11.088L342.672 288h-77.344l-24.384 84.464a17.072 17.072 0 0 1-20.704 11.088 15.6 15.6 0 0 1-11.952-19.2l78.752-272.8a18.352 18.352 0 0 1 33.904 0l78.752 272.8a15.6 15.6 0 0 1-11.936 19.2zM304 154.08L274.576 256h58.848zM208 608h480a16 16 0 0 1 0 32H208a16 16 0 0 1 0-32z m0 192h224a16 16 0 0 1 0 32H208a16 16 0 0 1 0-32z" fill="#FF4646" p-id="9739"></path></svg>