<?xml version="1.0" standalone="no"?><!DOCTYPE svg PUBLIC "-//W3C//DTD SVG 1.1//EN" "http://www.w3.org/Graphics/SVG/1.1/DTD/svg11.dtd"><svg t="1634801384556" class="icon" viewBox="0 0 1024 1024" version="1.1" xmlns="http://www.w3.org/2000/svg" p-id="8781" width="256" height="256" xmlns:xlink="http://www.w3.org/1999/xlink"><defs><style type="text/css"></style></defs><path d="M510.999273 94.813091c229.841455 0 416.162909 187.345455 416.162909 418.490182a418.210909 418.210909 0 0 1-98.490182 270.359272l108.404364 109.032728a38.167273 38.167273 0 0 1 0 53.783272 37.725091 37.725091 0 0 1-50.664728 2.606546l-2.862545-2.606546-108.8-109.451636a413.090909 413.090909 0 0 1-263.749818 94.766546c-229.864727 0-416.186182-187.368727-416.186182-418.490182S281.134545 94.813091 510.999273 94.813091z m157.44 578.373818H365.032727a33.186909 33.186909 0 0 0-3.188363 66.210909l3.188363 0.162909h303.406546a33.186909 33.186909 0 0 0 3.211636-66.234182l-3.211636-0.139636z m-100.305455-308.433454a23.272727 23.272727 0 0 0-30.301091 6.23709l-1.489454 2.280728-80.430546 139.287272a46.545455 46.545455 0 0 0-5.352727 14.24291l-0.581818 3.793454-5.888 51.968a23.272727 23.272727 0 0 0 33.419636 23.505455l2.350546-1.349819 45.381818-29.416727a46.545455 46.545455 0 0 0 12.637091-12.101818l2.373818-3.677091 79.662545-138.007273a23.272727 23.272727 0 0 0-6.237091-30.301091l-2.280727-1.489454-43.287273-24.971636z m58.624-101.329455a23.272727 23.272727 0 0 0-30.301091 6.260364l-1.489454 2.257454-23.528728 40.727273a23.272727 23.272727 0 0 0 6.237091 30.324364l2.280728 1.489454 43.287272 24.994909a23.272727 23.272727 0 0 0 30.301091-6.260363l1.489455-2.257455 23.505454-40.750545a23.272727 23.272727 0 0 0-6.237091-30.301091l-2.257454-1.489455-43.287273-24.994909z" fill="#FF6010" p-id="8782"></path></svg>