<?xml version="1.0" standalone="no"?><!DOCTYPE svg PUBLIC "-//W3C//DTD SVG 1.1//EN" "http://www.w3.org/Graphics/SVG/1.1/DTD/svg11.dtd"><svg t="1634801498640" class="icon" viewBox="0 0 1024 1024" version="1.1" xmlns="http://www.w3.org/2000/svg" p-id="14851" width="256" height="256" xmlns:xlink="http://www.w3.org/1999/xlink"><defs><style type="text/css"></style></defs><path d="M437.546667 621.312m-247.168 0a247.168 247.168 0 1 0 494.336 0 247.168 247.168 0 1 0-494.336 0Z" fill="#FFD6AB" p-id="14852"></path><path d="M511.146667 935.381333a421.546667 421.546667 0 0 1-299.221334-123.904 422.229333 422.229333 0 0 1-123.904-299.264 421.546667 421.546667 0 0 1 123.904-299.221333 422.229333 422.229333 0 0 1 299.264-123.904 421.546667 421.546667 0 0 1 299.264 123.904 422.229333 422.229333 0 0 1 123.861334 299.221333 421.546667 421.546667 0 0 1-123.861334 299.264 422.229333 422.229333 0 0 1-299.264 123.904z m0-776.277333c-194.688 0-353.109333 158.421333-353.109334 353.109333 0 194.730667 158.421333 353.152 353.152 353.152 194.730667 0 353.152-158.421333 353.152-353.152 0-194.688-158.421333-353.109333-353.152-353.109333zM64 280.746667a35.114667 35.114667 0 0 1-30.08-52.864 561.237333 561.237333 0 0 1 192.938667-193.877334 35.114667 35.114667 0 0 1 48.085333 12.032 35.114667 35.114667 0 0 1-12.032 48.042667 490.538667 490.538667 0 0 0-168.832 169.642667 34.986667 34.986667 0 0 1-30.08 17.066666z m897.749333-1.024a34.986667 34.986667 0 0 1-30.08-17.066667A490.538667 490.538667 0 0 0 762.453333 93.44a34.986667 34.986667 0 0 1 35.84-60.074667 560.896 560.896 0 0 1 193.28 193.408 34.986667 34.986667 0 0 1-12.117333 47.957334 32.768 32.768 0 0 1-17.749333 5.034666z" fill="#333333" p-id="14853"></path><path d="M175.530667 991.616a34.986667 34.986667 0 0 1-24.746667-59.733333l112.469333-112.469334a34.986667 34.986667 0 0 1 49.493334 49.493334L200.277333 981.333333a34.517333 34.517333 0 0 1-24.746666 10.282667z m673.152 0a34.517333 34.517333 0 0 1-24.746667-10.24l-112.426667-112.512a34.986667 34.986667 0 0 1 49.493334-49.450667l112.426666 112.469334a34.986667 34.986667 0 0 1-24.746666 59.733333z" fill="#515151" p-id="14854"></path><path d="M670.08 705.066667a34.816 34.816 0 0 1-24.618667-10.112l-158.890666-157.866667a34.858667 34.858667 0 0 1-10.368-24.874667V245.76a34.986667 34.986667 0 1 1 69.973333 0v251.904l148.522667 147.584c13.781333 13.653333 13.781333 35.84 0.128 49.450667a33.962667 33.962667 0 0 1-24.746667 10.368z" fill="#FF960B" p-id="14855"></path></svg>